# xmcd CD database file
#
# Track frame offsets:
#	150
#	21818
#	46039
#	70382
#	99037
#	118029
#	132248
#	154911
#	187524
#
# Disc length: 2890 seconds
#
# Revision: 2
# Processed by: cddbd v1.5.2PL0 Copyright (c) Steve Scherf et al.
# Submitted via: CDex 1.70beta2
#
DISCID=660b4809
DTITLE=Regina Carter - Paganini: After a Dream
DYEAR=2003
DGENRE=Jazz
TTITLE0=Pavane pour une infante defunte
TTITLE1=Black Orpheus
TTITLE2=Pavane
TTITLE3=Oblivion
TTITLE4=Reverie
TTITLE5=Healing in Foreign Lands
TTITLE6=Apres un reve
TTITLE7=Alexandra
TTITLE8=Cinema Paradiso
EXTD=2003\nVerve\n\nThis may not come as a surprise, but a black jazz violinist playing on Paganini's violin is a big deal.  That pretty much means that this is an increadible album.  As you might guess, the songs on this album are jazz interpretations o
EXTD=f classical songs.  Carter plays everything from Paganini to Debussey to Ravel.  This is a great album anyway you look at it. YEAR: 2003
EXTT0=
EXTT1=
EXTT2=
EXTT3=
EXTT4=
EXTT5=
EXTT6=
EXTT7=
EXTT8=
PLAYORDER=
